<?xml version="1.0" encoding="UTF-8"?>
<svg width="64px" height="41px" viewBox="0 0 64 41" version="1.1" xmlns="http://www.w3.org/2000/svg" xmlns:xlink="http://www.w3.org/1999/xlink">
    <title>编组</title>
    <g id="页面-1" stroke="none" stroke-width="1" fill="none" fill-rule="evenodd">
        <g id="编组" transform="translate(0.000000, 1.000000)">
            <ellipse id="椭圆形" fill="#F5F5F5" fill-rule="nonzero" cx="32" cy="33" rx="32" ry="7"></ellipse>
            <g transform="translate(9.000000, 0.000000)" id="路径" stroke="#D9D9D9">
                <path d="M46,12.76 L35.854,1.258 C35.367,0.474 34.656,0 33.907,0 L12.093,0 C11.344,0 10.633,0.474 10.146,1.257 L0,12.761 L0,22 L46,22 L46,12.76 Z"></path>
                <path d="M32.613,15.931 C32.613,14.326 33.607,13.001 34.84,13 L46,13 L46,31.137 C46,33.26 44.68,35 43.05,35 L2.95,35 C1.32,35 0,33.259 0,31.137 L0,13 L11.16,13 C12.393,13 13.387,14.323 13.387,15.928 L13.387,15.95 C13.387,17.555 14.392,18.851 15.624,18.851 L30.376,18.851 C31.608,18.851 32.613,17.543 32.613,15.938 L32.613,15.931 L32.613,15.931 Z" fill="#FAFAFA" fill-rule="nonzero"></path>
            </g>
        </g>
    </g>
</svg>