<?xml version="1.0" encoding="UTF-8"?>
<svg width="20px" height="20px" viewBox="0 0 20 20" version="1.1" xmlns="http://www.w3.org/2000/svg" xmlns:xlink="http://www.w3.org/1999/xlink">
    <title>意见反馈</title>
    <g id="控件" stroke="none" stroke-width="1" fill="none" fill-rule="evenodd">
        <g id="导航备份" transform="translate(-1734, -30)" fill="#A0A0B3" fill-rule="nonzero">
            <g id="意见反馈" transform="translate(1734, 30)">
                <path d="M17.2216867,6.96144578 L17.2216867,1.80481928 C17.2216867,0.807228916 16.4144578,0 15.4168675,0 L4.58313253,0 C3.58554217,0 2.77831325,0.809638554 2.77831325,1.80481928 L2.77831325,6.96144578 L10,12.0963855 L17.2216867,6.96144578 Z M5.55662651,2.22168675 L14.4457831,2.22168675 C14.7518072,2.22168675 15.0024096,2.46987952 15.0024096,2.77831325 C15.0024096,3.08433735 14.7542169,3.33493976 14.4457831,3.33493976 L5.55662651,3.33493976 C5.25060241,3.33493976 5,3.08674699 5,2.77831325 C5,2.46987952 5.24819277,2.22168675 5.55662651,2.22168675 Z M5,5 C5,4.6939759 5.24819277,4.44337349 5.55662651,4.44337349 L11.113253,4.44337349 C11.4192771,4.44337349 11.6698795,4.69156627 11.6698795,5 C11.6698795,5.3060241 11.4216867,5.55662651 11.113253,5.55662651 L5.55662651,5.55662651 C5.24819277,5.55662651 5,5.3060241 5,5 Z M19.8192771,6.47951807 L10.9590361,12.7783133 L19.8192771,19.0771084 C19.9325301,18.853012 20.0024096,18.6024096 20.0024096,18.3349398 L20.0024096,7.22168675 C20,6.95421687 19.9301205,6.70361446 19.8192771,6.47951807 Z M0,7.22168675 L0,18.3325301 C0,19.253012 0.746987952,20 1.66746988,20 L18.3349398,20 C18.573494,20 18.7975904,19.9493976 19.0024096,19.8578313 L0.18313253,6.47710843 C0.0698795181,6.70361446 0,6.95421687 0,7.22168675 L0,7.22168675 Z" id="形状"></path>
            </g>
        </g>
    </g>
</svg>