<svg
      xmlns="http://www.w3.org/2000/svg"
      xmlns:xlink="http://www.w3.org/1999/xlink"
      fill="none"
      version="1.1"
      width="174"
      height="26"
      viewBox="0 0 174 26"
    >
      <defs>
        <clipPath id="master_svg0_8_22">
          <rect x="0" y="0.77044677734375" width="43.504512786865234" height="24.493152618408203" rx="0" />
        </clipPath>
      </defs>
      <g>
        <g clip-path="url(#master_svg0_8_22)">
          <g>
            <g>
              <path
                d="M28.65924072265625,0.77044677734375L38.49442072265625,24.70164677734375L43.50454072265625,24.93414677734375L33.67161072265625,0.77044677734375L28.65924072265625,0.77044677734375Z"
                fill="#3DD9EB"
                fill-opacity="1"
              />
            </g>
            <g>
              <path
                d="M30.3451,24.24574677734375L35.4612,24.51434677734375L29.0632,8.78663677734375L27.5511,5.20958677734375C25.0732,5.44655677734375,22.7802,6.10102677734375,20.625,7.13013677734375L17.9823,0.77044677734375L10.2098,0.77044677734375L0,25.26364677734375C2.55245,24.82124677734375,6.10241,24.40824677734375,8.75191,24.12614677734375C8.75191,24.13064677734375,8.75191,24.13514677734375,8.74965,24.13974677734375L12.5388,23.65224677734375C13.0872,19.43424677734375,15.1139,15.82114677734375,18.1357,13.14454677734375L22.5026,23.85984677734375L27.5827,24.10584677734375L22.0219,10.61239677734375C22.8389,10.20165677734375,23.5408,9.85410677734375,24.4232,9.57651677734375L30.3451,24.24574677734375ZM9.10848,21.65724677734375L6.26716,22.05444677734375L14.096,3.42219677734375L16.6575,9.57426677734375C12.9383,12.47874677734375,10.264,16.588446777343748,9.18296,21.37064677734375C9.15813,21.46534677734375,9.13105,21.56014677734375,9.10848,21.65724677734375Z"
                fill="#0085FF"
                fill-opacity="1"
              />
            </g>
          </g>
        </g>
        <g>
          <path
            d="M48.6085205078125,3.38626346484375L57.2061505078125,3.38626346484375Q60.2072205078125,3.38626346484375,61.8835205078125,4.7110514648437505Q63.6949205078125,6.19807146484375,63.6949205078125,8.928761464843749Q63.6949205078125,10.41577146484375,62.8838205078125,11.60538146484375Q61.9916205078125,12.90314146484375,60.4235205078125,13.30865146484375L60.4235205078125,13.36275146484375Q62.9379205078125,13.93055146484375,63.262320507812504,16.74235146484375L63.586820507812504,19.85155146484375Q63.7490205078125,21.60895146484375,64.7493205078125,22.69035146484375L61.3157205078125,22.69035146484375Q60.6398205078125,21.82525146484375,60.4776205078125,20.17595146484375L60.2342205078125,17.79675146484375Q60.072020507812496,16.20165146484375,59.2609205078125,15.52565146484375Q58.4498305078125,14.82275146484375,56.7735705078125,14.82275146484375L51.7718005078125,14.82275146484375L51.7718005078125,22.69035146484375L48.6085205078125,22.69035146484375L48.6085205078125,3.38626346484375ZM51.7718005078125,6.08992146484375L51.7718005078125,12.11908146484375L56.7735705078125,12.11908146484375Q58.6120205078125,12.11908146484375,59.6124205078125,11.33502146484375Q60.504620507812504,10.523921464843749,60.504620507812504,9.06394146484375Q60.504620507812504,7.46879146484375,59.6124205078125,6.79287146484375Q58.7472205078125,6.08992146484375,56.7735705078125,6.08992146484375L51.7718005078125,6.08992146484375ZM73.5362205078125,8.33396146484375Q76.6454205078125,8.33396146484375,78.1054205078125,9.87504146484375Q79.4032205078125,11.19983146484375,79.4032205078125,13.76835146484375L79.4032205078125,22.69035146484375L76.5373205078125,22.69035146484375L76.5373205078125,20.85185146484375Q75.7803205078125,21.85225146484375,74.5366205078125,22.44705146484375Q73.1577205078125,23.06885146484375,71.37332050781251,23.06885146484375Q69.2104205078125,23.06885146484375,67.9397205078125,21.96035146484375Q66.6419205078125,20.82485146484375,66.6419205078125,19.09455146484375Q66.6419205078125,16.71525146484375,68.4804205078125,15.47165146484375Q70.1837205078125,14.25495146484375,73.2659205078125,14.17385146484375L76.3210205078125,14.09275146484375L76.3210205078125,13.55205146484375Q76.3210205078125,10.82132146484375,73.3199205078125,10.82132146484375Q71.9951205078125,10.82132146484375,71.2652205078125,11.28094146484375Q70.34592050781251,11.82168146484375,70.1026205078125,12.90314146484375L67.0474205078125,12.65981146484375Q67.5071205078125,10.33466146484375,69.31852050781251,9.280241464843751Q70.8055205078125,8.33396146484375,73.5362205078125,8.33396146484375ZM76.3210205078125,16.30975146484375L73.4821205078125,16.39085146484375Q69.80522050781249,16.471951464843748,69.80522050781249,18.98635146484375Q69.80522050781249,19.74335146484375,70.4270205078125,20.20305146484375Q71.1029205078125,20.71675146484375,72.07622050781251,20.71675146484375Q73.8336205078125,20.71675146484375,75.0773205078125,19.68935146484375Q76.3210205078125,18.607851464843748,76.3210205078125,17.01265146484375L76.3210205078125,16.30975146484375ZM87.0275205078125,4.19736146484375L87.0275205078125,8.71247146484375L90.1367205078125,8.71247146484375L90.1367205078125,11.25391146484375L87.0275205078125,11.25391146484375L87.0275205078125,19.14855146484375Q87.0275205078125,19.66225146484375,87.2438205078125,19.90565146484375Q87.4871205078125,20.14895146484375,87.9467205078125,20.14895146484375L89.7852205078125,20.14895146484375L89.7852205078125,22.69035146484375L87.4330205078125,22.69035146484375Q85.62162050781251,22.69035146484375,84.75642050781249,21.71705146484375Q83.9453205078125,20.82485146484375,83.9453205078125,19.14855146484375L83.9453205078125,11.25391146484375L81.4309205078125,11.25391146484375L81.4309205078125,8.71247146484375L83.9453205078125,8.71247146484375L83.9453205078125,5.46808146484375L87.0275205078125,4.19736146484375ZM92.4348205078125,8.71247146484375L95.5170205078125,8.71247146484375L95.5170205078125,17.22895146484375Q95.5170205078125,18.932251464843752,96.2199205078125,19.71635146484375Q96.9499205078125,20.50045146484375,98.5451205078125,20.50045146484375Q99.54542050781251,20.50045146484375,100.4917205078125,19.63525146484375Q101.4380205078125,18.71605146484375,101.8435205078125,17.25605146484375L101.8435205078125,8.71247146484375L104.9257205078125,8.71247146484375L104.9257205078125,22.69035146484375L101.8435205078125,22.69035146484375L101.8435205078125,20.87895146484375Q100.05912050781251,23.06885146484375,97.4636205078125,23.06885146484375Q92.4348205078125,23.06885146484375,92.4348205078125,17.41825146484375L92.4348205078125,8.71247146484375ZM108.44042050781249,3.38626346484375L117.2814205078125,3.38626346484375Q120.1743205078125,3.38626346484375,121.7965205078125,4.7651314648437495Q123.3106205078125,6.06288146484375,123.3106205078125,8.25285146484375Q123.3106205078125,9.84801146484375,122.5265205078125,11.01058146484375Q121.7695205078125,12.03797146484375,120.3095205078125,12.60574146484375Q122.2021205078125,12.95721146484375,123.1754205078125,14.14685146484375Q124.1217205078125,15.30935146484375,124.1217205078125,17.25605146484375Q124.1217205078125,20.17595146484375,122.1210205078125,21.55485146484375Q120.4177205078125,22.69035146484375,117.3084205078125,22.69035146484375L108.44042050781249,22.69035146484375L108.44042050781249,3.38626346484375ZM111.6037205078125,5.981771464843749L111.6037205078125,11.49723146484375L116.4433205078125,11.49723146484375Q118.4169205078125,11.49723146484375,119.3092205078125,10.82132146484375Q120.1473205078125,10.11837146484375,120.1473205078125,8.63136146484375Q120.1473205078125,7.25249146484375,119.3092205078125,6.63065146484375Q118.4169205078125,5.981771464843749,116.4973205078125,5.981771464843749L111.6037205078125,5.981771464843749ZM111.6037205078125,14.09275146484375L111.6037205078125,20.09485146484375L116.8488205078125,20.09485146484375Q118.6603205078125,20.09485146484375,119.6606205078125,19.52715146484375Q120.9584205078125,18.79715146484375,120.9584205078125,17.201951464843752Q120.9584205078125,15.55275146484375,120.0121205078125,14.82275146484375Q119.0388205078125,14.09275146484375,116.9299205078125,14.09275146484375L111.6037205078125,14.09275146484375ZM133.42222050781248,8.33396146484375Q134.4767205078125,8.33396146484375,135.1796205078125,8.685431464843749L135.1796205078125,11.76760146484375Q134.2063205078125,11.47020146484375,133.1789205078125,11.47020146484375Q131.93522050781252,11.47020146484375,130.98902050781248,12.41648146484375Q129.8805205078125,13.49795146484375,129.8805205078125,15.28235146484375L129.8805205078125,22.69035146484375L126.8253205078125,22.69035146484375L126.8253205078125,8.71247146484375L129.8805205078125,8.71247146484375L129.8805205078125,10.71317146484375Q130.4482205078125,9.63171146484375,131.2052205078125,9.09098146484375Q132.12452050781252,8.33396146484375,133.42222050781248,8.33396146484375ZM143.2906205078125,8.33396146484375Q146.3998205078125,8.33396146484375,147.85982050781251,9.87504146484375Q149.1575205078125,11.19983146484375,149.1575205078125,13.76835146484375L149.1575205078125,22.69035146484375L146.2917205078125,22.69035146484375L146.2917205078125,20.85185146484375Q145.53462050781252,21.85225146484375,144.2909205078125,22.44705146484375Q142.91212050781252,23.06885146484375,141.1277205078125,23.06885146484375Q138.9647205078125,23.06885146484375,137.6940205078125,21.96035146484375Q136.3963205078125,20.82485146484375,136.3963205078125,19.09455146484375Q136.3963205078125,16.71525146484375,138.23482050781251,15.47165146484375Q139.9381205078125,14.25495146484375,143.0202205078125,14.17385146484375L146.0754205078125,14.09275146484375L146.0754205078125,13.55205146484375Q146.0754205078125,10.82132146484375,143.0743205078125,10.82132146484375Q141.74952050781252,10.82132146484375,141.0195205078125,11.28094146484375Q140.1003205078125,11.82168146484375,139.8570205078125,12.90314146484375L136.8018205078125,12.65981146484375Q137.2614205078125,10.33466146484375,139.0729205078125,9.280241464843751Q140.5599205078125,8.33396146484375,143.2906205078125,8.33396146484375ZM146.0754205078125,16.30975146484375L143.2365205078125,16.39085146484375Q139.5595205078125,16.471951464843748,139.5595205078125,18.98635146484375Q139.5595205078125,19.74335146484375,140.1814205078125,20.20305146484375Q140.85732050781252,20.71675146484375,141.8306205078125,20.71675146484375Q143.5880205078125,20.71675146484375,144.83172050781252,19.68935146484375Q146.0754205078125,18.607851464843748,146.0754205078125,17.01265146484375L146.0754205078125,16.30975146484375ZM154.4835205078125,3.00775146484375Q155.40252050781248,3.00775146484375,155.9975205078125,3.57551946484375Q156.59252050781248,4.1703214648437505,156.59252050781248,5.03549146484375Q156.59252050781248,5.9547414648437496,155.9705205078125,6.522501464843749Q155.3755205078125,7.09027146484375,154.4835205078125,7.09027146484375Q153.6185205078125,7.09027146484375,152.9965205078125,6.522501464843749Q152.4015205078125,5.92770146484375,152.4015205078125,5.03549146484375Q152.4015205078125,4.14329146484375,152.9965205078125,3.57551946484375Q153.6185205078125,3.00775146484375,154.4835205078125,3.00775146484375ZM152.9425205078125,8.71247146484375L156.0245205078125,8.71247146484375L156.0245205078125,22.69035146484375L152.9425205078125,22.69035146484375L152.9425205078125,8.71247146484375ZM167.0555205078125,8.33396146484375Q172.3005205078125,8.33396146484375,172.3005205078125,14.06575146484375L172.3005205078125,22.69035146484375L169.2185205078125,22.69035146484375L169.2185205078125,14.33605146484375Q169.2185205078125,10.902431464843751,166.0555205078125,10.902431464843751Q164.9195205078125,10.902431464843751,164.0545205078125,11.71353146484375Q163.0815205078125,12.60574146484375,162.9195205078125,14.28205146484375L162.9195205078125,22.69035146484375L159.8365205078125,22.69035146484375L159.8365205078125,8.71247146484375L162.9195205078125,8.71247146484375L162.9195205078125,10.33466146484375Q163.7575205078125,9.33431146484375,164.7575205078125,8.84765146484375Q165.78552050781252,8.33396146484375,167.0555205078125,8.33396146484375Z"
            fill="#000000"
            fill-opacity="1"
          />
        </g>
      </g>
    </svg>