<?xml version="1.0" encoding="UTF-8"?>
<svg id="_图层_2" data-name="图层 2" xmlns="http://www.w3.org/2000/svg" viewBox="0 0 926.55 341.62">
  <defs>
    <style>
      .cls-1 {
        fill: #0085ff;
      }

      .cls-2 {
        fill: #0a0a0a;
      }

      .cls-3 {
        fill: #3dd9eb;
      }
    </style>
  </defs>
  <g>
    <polygon class="cls-3" points="216.78 116.55 260.36 222.58 282.56 223.62 238.98 116.55 216.78 116.55"/>
    <path class="cls-1" d="m224.25,220.56l22.67,1.19-28.35-69.69h0l-6.7-15.85c-10.98,1.05-21.14,3.95-30.69,8.51l-11.7-28.18h-34.45l-45.24,108.53c11.31-1.96,27.04-3.79,38.78-5.04,0,.02,0,.04,0,.06l16.79-2.16c2.43-18.69,11.41-34.7,24.8-46.56l19.35,47.48,22.51,1.09-24.63-59.78c3.62-1.82,6.73-3.36,10.64-4.59l26.24,65Zm-94.1-11.47l-12.59,1.76,34.69-82.56,11.35,27.26c-16.47,12.88-28.32,31.08-33.11,52.27-.11.42-.23.84-.33,1.27Z"/>
  </g>
  <g>
    <path class="cls-2" d="m302.47,128.83h37.86c8.78,0,15.65,1.96,20.61,5.87,5.27,4.31,7.91,10.5,7.91,18.57,0,4.47-1.2,8.47-3.59,11.98-2.72,3.83-6.43,6.35-11.14,7.55v.24c7.59,1.68,11.86,6.71,12.82,15.09l1.44,13.66c.48,5.27,2.16,9.46,5.03,12.58h-14.14c-2-2.56-3.23-6.31-3.71-11.26l-1.08-10.66c-.48-4.63-2-8.07-4.55-10.3-2.56-2.08-6.31-3.11-11.26-3.11h-23.12v35.34h-13.06v-85.54Zm13.06,11.14v27.91h23.12c5.67,0,9.98-1.24,12.94-3.71,2.79-2.4,4.19-5.87,4.19-10.42s-1.36-8.19-4.07-10.42c-2.8-2.23-7.19-3.35-13.18-3.35h-23Z"/>
    <path class="cls-2" d="m432.21,157.58c3.75,3.99,5.63,9.75,5.63,17.25v39.53h-11.74v-8.75c-2.32,3.04-5.35,5.55-9.1,7.55-4.07,1.92-8.83,2.88-14.26,2.88-6.39,0-11.46-1.64-15.21-4.91-3.83-3.35-5.75-7.79-5.75-13.3,0-7.83,3.07-13.62,9.22-17.37,5.19-3.19,11.98-4.79,20.37-4.79l13.9-.12v-1.56c0-8.63-4.67-12.94-14.02-12.94-4.39,0-7.75.8-10.06,2.4-2.8,1.84-4.43,4.55-4.91,8.15h-12.58c.96-7.35,4.07-12.78,9.34-16.29,4.47-3.03,10.82-4.55,19.05-4.55,9.1,0,15.81,2.28,20.13,6.83Zm-6.95,27.67l-13.06.12c-11.58,0-17.37,4.03-17.37,12.1,0,2.48.92,4.51,2.76,6.11,1.84,1.6,4.51,2.4,8.03,2.4,5.67,0,10.42-1.6,14.26-4.79,3.59-3.27,5.39-7.51,5.39-12.7v-3.23Z"/>
    <path class="cls-2" d="m471.15,132.42v20.01h14.14v10.54h-14.14v35.94c0,1.6.36,2.84,1.08,3.71.8.8,1.92,1.2,3.35,1.2h8.15v10.54h-10.18c-5.35,0-9.22-1.4-11.62-4.19-2.32-2.56-3.47-6.31-3.47-11.26v-35.94h-11.5v-10.54h11.5v-14.74l12.7-5.27Z"/>
    <path class="cls-2" d="m495.46,152.43h12.7v37.74c0,5.35,1.12,9.19,3.35,11.5,2.24,2.48,5.79,3.71,10.66,3.71,3.19,0,6.27-1.36,9.22-4.07,2.88-2.79,4.87-6.47,5.99-11.02v-37.86h12.7v61.94h-12.7v-8.39c-5.27,6.71-11.78,10.06-19.53,10.06-14.94,0-22.4-8.34-22.4-25.04v-38.57Z"/>
    <path class="cls-2" d="m565.78,128.83h39.05c8.39,0,14.93,2,19.65,5.99,4.55,3.83,6.83,9.03,6.83,15.57,0,4.79-1.2,8.86-3.59,12.22-2.48,3.2-5.79,5.55-9.94,7.07,5.67,1.12,9.94,3.4,12.82,6.83,2.88,3.44,4.31,8.07,4.31,13.9,0,8.55-2.96,14.85-8.87,18.93-5.03,3.35-12.1,5.03-21.2,5.03h-39.05v-85.54Zm13.06,10.78v25.52h22.52c5.91,0,10.22-1.04,12.94-3.11,2.64-2.16,3.95-5.51,3.95-10.06,0-4.31-1.32-7.43-3.95-9.34-2.56-2-6.79-3-12.7-3h-22.76Zm0,36.18v27.79h24.2c5.35,0,9.66-.88,12.94-2.64,3.91-2.32,5.87-5.91,5.87-10.78s-1.52-8.7-4.55-11.02c-2.96-2.23-7.59-3.35-13.9-3.35h-24.56Z"/>
    <path class="cls-2" d="m683.67,152.31v12.7c-2.88-.88-5.87-1.32-8.98-1.32-3.83,0-7.27,1.56-10.3,4.67-3.2,3.28-4.79,7.67-4.79,13.18v32.82h-12.7v-61.94h12.7v9.34c1.52-3.27,3.51-5.79,5.99-7.55,2.79-2.32,6.15-3.47,10.06-3.47,3.27,0,5.95.52,8.03,1.56Z"/>
    <path class="cls-2" d="m739.49,157.58c3.75,3.99,5.63,9.75,5.63,17.25v39.53h-11.74v-8.75c-2.32,3.04-5.35,5.55-9.1,7.55-4.07,1.92-8.83,2.88-14.26,2.88-6.39,0-11.46-1.64-15.21-4.91-3.83-3.35-5.75-7.79-5.75-13.3,0-7.83,3.07-13.62,9.22-17.37,5.19-3.19,11.98-4.79,20.37-4.79l13.9-.12v-1.56c0-8.63-4.67-12.94-14.02-12.94-4.39,0-7.75.8-10.06,2.4-2.8,1.84-4.43,4.55-4.91,8.15h-12.58c.96-7.35,4.07-12.78,9.34-16.29,4.47-3.03,10.82-4.55,19.05-4.55,9.1,0,15.81,2.28,20.13,6.83Zm-6.95,27.67l-13.06.12c-11.58,0-17.37,4.03-17.37,12.1,0,2.48.92,4.51,2.76,6.11,1.84,1.6,4.51,2.4,8.03,2.4,5.67,0,10.42-1.6,14.26-4.79,3.59-3.27,5.39-7.51,5.39-12.7v-3.23Z"/>
    <path class="cls-2" d="m774.95,130.03c1.68,1.52,2.52,3.55,2.52,6.11,0,2.4-.88,4.47-2.64,6.23-1.76,1.6-3.83,2.4-6.23,2.4s-4.47-.8-6.23-2.4c-1.68-1.68-2.52-3.75-2.52-6.23s.84-4.59,2.52-6.11c1.6-1.6,3.67-2.4,6.23-2.4s4.75.8,6.35,2.4Zm-12.7,22.4h12.7v61.94h-12.7v-61.94Z"/>
    <path class="cls-2" d="m846.59,176.15v38.22h-12.7v-37.14c0-10.54-4.83-15.81-14.5-15.81-3.75,0-6.91,1.28-9.46,3.83-2.96,2.96-4.67,6.91-5.15,11.86v37.26h-12.7v-61.94h12.7v7.67c2.32-3.03,5.07-5.35,8.27-6.95,2.95-1.6,6.43-2.4,10.42-2.4,15.41,0,23.12,8.47,23.12,25.4Z"/>
  </g>
</svg>